<?xml version="1.0" standalone="no"?>
<!DOCTYPE svg PUBLIC "-//W3C//DTD SVG 20010904//EN"
 "http://www.w3.org/TR/2001/REC-SVG-20010904/DTD/svg10.dtd">
<svg version="1.0" xmlns="http://www.w3.org/2000/svg"
 width="1080.000000pt" height="1080.000000pt" viewBox="0 0 1080.000000 1080.000000"
 preserveAspectRatio="xMidYMid meet">
<metadata>
Created by potrace 1.14, written by Peter Selinger 2001-2017
</metadata>
<g transform="translate(0.000000,1080.000000) scale(0.100000,-0.100000)"
fill="#000000" stroke="none">
<path d="M5125 10790 c-1511 -78 -2903 -774 -3874 -1936 -656 -785 -1078
-1759 -1205 -2779 -55 -438 -55 -910 0 -1350 95 -768 363 -1527 772 -2180 792
-1268 2076 -2155 3527 -2439 117 -23 373 -66 392 -66 5 0 3 111 -3 247 -7 137
-15 311 -18 388 -20 436 -31 592 -71 1005 -24 250 -46 541 -50 645 -4 105 -10
267 -15 360 -5 94 -6 173 -2 176 4 3 57 16 118 28 61 12 275 70 476 130 l365
108 434 -43 c239 -23 453 -45 475 -47 l42 -4 -127 156 c-70 86 -163 201 -208
256 l-81 101 37 64 c50 88 127 227 293 530 77 140 145 261 150 268 6 6 7 12 4
12 -7 0 -431 -294 -1281 -889 l-450 -314 -501 -254 -501 -253 -229 0 -229 0
-162 163 -161 162 -28 135 c-25 122 -27 152 -25 310 l2 175 -70 258 -71 257
17 75 16 75 -100 103 -100 103 -23 95 -23 96 35 89 c31 78 36 104 42 209 4 66
9 143 12 171 l6 51 -149 115 c-148 116 -148 116 -201 212 l-53 97 27 87 26 88
170 195 c150 171 388 465 396 488 2 5 -16 11 -40 13 -40 4 -47 0 -91 -40 -26
-25 -50 -43 -52 -40 -7 7 -65 179 -65 192 0 6 29 31 64 56 62 44 64 47 91 130
15 47 30 90 32 96 2 7 -43 37 -102 69 -58 31 -104 59 -101 63 2 4 56 140 119
302 69 177 182 436 282 648 92 194 165 355 163 356 -1 2 -226 -66 -498 -150
-272 -85 -500 -154 -505 -154 -8 0 -118 1023 -115 1072 0 4 251 -164 558 -374
306 -209 562 -382 568 -385 5 -2 437 118 959 266 l948 270 146 -132 c80 -73
247 -225 371 -336 124 -112 228 -211 232 -221 3 -9 144 -507 313 -1106 169
-599 310 -1092 314 -1095 3 -4 96 89 206 207 110 117 229 244 265 282 56 59
93 85 260 180 l195 112 140 -55 c77 -31 146 -62 153 -69 7 -7 48 -69 91 -138
l77 -125 18 -170 19 -170 -28 -149 c-27 -149 -28 -150 -147 -400 l-120 -251
-139 -103 c-76 -57 -135 -108 -132 -113 3 -6 1 -7 -6 -3 -16 10 -53 -3 -45
-16 4 -7 2 -8 -5 -4 -16 10 -53 -3 -45 -16 4 -7 2 -8 -5 -4 -16 10 -53 -3 -45
-16 4 -7 2 -8 -5 -4 -16 10 -53 -3 -45 -16 4 -7 2 -8 -5 -4 -16 10 -53 -3 -45
-16 4 -7 2 -8 -5 -4 -16 10 -53 -3 -45 -16 4 -7 2 -8 -5 -4 -16 10 -53 -3 -45
-16 4 -7 2 -8 -5 -4 -13 9 -53 -2 -47 -12 2 -4 -12 -7 -32 -7 -26 1 -68 18
-138 58 -56 31 -104 57 -107 57 -8 0 -139 -191 -134 -196 2 -3 76 11 162 31
87 19 170 35 184 35 23 -1 38 -20 118 -153 358 -592 525 -859 473 -759 -12 25
-12 27 51 97 15 17 29 41 31 55 2 13 27 -82 56 -213 29 -130 51 -241 47 -247
-3 -5 -1 -10 4 -10 6 0 11 -9 11 -20 0 -11 101 -221 224 -468 194 -388 264
-535 228 -484 -9 13 -18 1 -716 -908 -141 -184 -263 -343 -271 -353 -15 -17
-7 -24 10 -8 6 5 163 64 349 130 187 67 349 128 361 134 12 7 78 73 146 147
68 74 160 172 205 218 l80 82 38 -132 c34 -120 39 -153 52 -348 32 -487 46
-675 48 -677 6 -6 290 211 411 313 271 230 572 544 784 818 960 1241 1332
2841 1020 4386 -182 900 -594 1740 -1203 2450 -127 148 -437 456 -592 586
-611 515 -1310 883 -2078 1093 -522 143 -1144 209 -1691 181z m-1773 -847
c114 -43 204 -80 200 -84 -7 -6 -823 -101 -828 -96 -2 2 408 256 416 257 3 0
98 -35 212 -77z m4055 -4935 c-3 -8 -6 -5 -6 6 -1 11 2 17 5 13 3 -3 4 -12 1
-19z m20 -90 c-3 -8 -6 -5 -6 6 -1 11 2 17 5 13 3 -3 4 -12 1 -19z m20 -90
c-3 -8 -6 -5 -6 6 -1 11 2 17 5 13 3 -3 4 -12 1 -19z m50 -220 c-3 -8 -6 -5
-6 6 -1 11 2 17 5 13 3 -3 4 -12 1 -19z m10 -50 c-3 -7 -5 -2 -5 12 0 14 2 19
5 13 2 -7 2 -19 0 -25z m21 -83 c0 -16 -2 -15 -8 5 -4 14 -8 34 -8 45 0 16 2
15 8 -5 4 -14 8 -34 8 -45z m20 -90 c0 -16 -2 -15 -8 5 -4 14 -8 34 -8 45 0
16 2 15 8 -5 4 -14 8 -34 8 -45z m9 -47 c-3 -8 -6 -5 -6 6 -1 11 2 17 5 13 3
-3 4 -12 1 -19z m10 -50 c-3 -7 -5 -2 -5 12 0 14 2 19 5 13 2 -7 2 -19 0 -25z
m10 -40 c-3 -8 -6 -5 -6 6 -1 11 2 17 5 13 3 -3 4 -12 1 -19z m10 -50 c-3 -7
-5 -2 -5 12 0 14 2 19 5 13 2 -7 2 -19 0 -25z m10 -40 c-3 -8 -6 -5 -6 6 -1
11 2 17 5 13 3 -3 4 -12 1 -19z m-1570 -624 c-3 -3 -12 -4 -19 -1 -8 3 -5 6 6
6 11 1 17 -2 13 -5z m-110 -30 c-3 -3 -12 -4 -19 -1 -8 3 -5 6 6 6 11 1 17 -2
13 -5z m-40 -10 c-3 -3 -12 -4 -19 -1 -8 3 -5 6 6 6 11 1 17 -2 13 -5z m-40
-10 c-3 -3 -12 -4 -19 -1 -8 3 -5 6 6 6 11 1 17 -2 13 -5z m-70 -20 c-3 -3
-12 -4 -19 -1 -8 3 -5 6 6 6 11 1 17 -2 13 -5z m-40 -10 c-3 -3 -12 -4 -19 -1
-8 3 -5 6 6 6 11 1 17 -2 13 -5z m-40 -10 c-3 -3 -12 -4 -19 -1 -8 3 -5 6 6 6
11 1 17 -2 13 -5z m-40 -10 c-3 -3 -12 -4 -19 -1 -8 3 -5 6 6 6 11 1 17 -2 13
-5z m-110 -30 c-3 -3 -12 -4 -19 -1 -8 3 -5 6 6 6 11 1 17 -2 13 -5z m-40 -10
c-3 -3 -12 -4 -19 -1 -8 3 -5 6 6 6 11 1 17 -2 13 -5z m-40 -10 c-3 -3 -12 -4
-19 -1 -8 3 -5 6 6 6 11 1 17 -2 13 -5z m2730 -746 c-3 -8 -6 -5 -6 6 -1 11 2
17 5 13 3 -3 4 -12 1 -19z m22 -68 c0 -9 -4 -8 -9 5 -5 11 -9 27 -9 35 0 9 4
8 9 -5 5 -11 9 -27 9 -35z m20 -70 c0 -9 -4 -8 -9 5 -5 11 -9 27 -9 35 0 9 4
8 9 -5 5 -11 9 -27 9 -35z m8 -42 c-3 -8 -6 -5 -6 6 -1 11 2 17 5 13 3 -3 4
-12 1 -19z m22 -68 c0 -9 -4 -8 -9 5 -5 11 -9 27 -9 35 0 9 4 8 9 -5 5 -11 9
-27 9 -35z m20 -70 c0 -9 -4 -8 -9 5 -5 11 -9 27 -9 35 0 9 4 8 9 -5 5 -11 9
-27 9 -35z m20 -70 c0 -9 -4 -8 -9 5 -5 11 -9 27 -9 35 0 9 4 8 9 -5 5 -11 9
-27 9 -35z m25 -90 c4 -24 3 -29 -3 -15 -4 11 -11 36 -15 55 -4 24 -3 29 3 15
4 -11 11 -36 15 -55z"/>
<path d="M3690 7487 c-195 -49 -356 -91 -357 -91 -4 -3 -27 -488 -23 -491 3
-1 164 75 357 171 l353 173 357 91 c197 50 367 94 378 97 23 7 -622 143 -675
142 -19 -1 -195 -42 -390 -92z"/>
<path d="M3930 6983 c259 -94 476 -177 480 -182 4 -6 127 -41 144 -41 2 0 9
14 15 30 8 23 7 32 -2 35 -7 2 -153 40 -325 85 -281 72 -358 90 -312 73z"/>
<path d="M3872 6871 c-18 -32 -132 -313 -132 -325 0 -6 58 9 109 28 41 15 44
15 71 -4 15 -11 32 -20 37 -20 5 0 34 33 65 73 l57 74 -7 89 -7 88 -75 18
c-41 9 -80 17 -86 18 -6 0 -20 -17 -32 -39z"/>
<path d="M4288 6823 c7 -3 16 -2 19 1 4 3 -2 6 -13 5 -11 0 -14 -3 -6 -6z"/>
<path d="M4328 6813 c7 -3 16 -2 19 1 4 3 -2 6 -13 5 -11 0 -14 -3 -6 -6z"/>
<path d="M3853 6553 c15 -2 39 -2 55 0 15 2 2 4 -28 4 -30 0 -43 -2 -27 -4z"/>
<path d="M7102 6033 c-17 -65 -34 -147 -38 -182 l-7 -65 49 35 c69 50 176 124
194 135 8 4 -41 -54 -110 -130 l-125 -137 -6 48 -6 48 -1 -62 -2 -62 -79 -46
c-69 -40 -84 -53 -119 -112 -23 -37 -39 -69 -37 -71 2 -2 81 6 177 19 l173 22
82 251 82 251 -92 87 c-51 48 -95 88 -98 88 -4 0 -20 -53 -37 -117z"/>
<path d="M2846 5499 c-55 -5 -102 -11 -104 -14 -3 -3 3 -23 13 -45 12 -28 25
-40 39 -41 12 0 81 -6 154 -12 72 -7 132 -12 132 -11 0 7 -124 134 -129 133
-3 -1 -51 -6 -105 -10z"/>
<path d="M6584 4635 c0 -93 2 -133 3 -88 2 45 2 122 0 170 -1 48 -3 12 -3 -82z"/>
<path d="M3007 4633 c-9 -37 -21 -95 -27 -128 -6 -33 -13 -67 -16 -76 -4 -15
8 -14 108 8 62 13 117 25 121 26 6 2 -132 195 -168 235 -2 2 -10 -27 -18 -65z"/>
<path d="M2800 4560 c18 -47 43 -116 57 -155 14 -38 27 -71 28 -73 1 -2 17 15
34 36 l30 39 -84 113 c-47 62 -87 116 -90 119 -4 3 8 -33 25 -79z"/>
<path d="M3454 4551 c4 -6 0 -11 -11 -11 -26 0 -203 -72 -203 -83 0 -5 6 -7
13 -4 7 3 101 -6 209 -19 177 -22 203 -23 262 -11 36 7 63 10 60 5 -3 -4 6 -3
21 4 24 11 12 16 -142 63 -93 28 -179 55 -192 59 -16 6 -21 5 -17 -3z"/>
<path d="M7601 4074 c0 -11 3 -14 6 -6 3 7 2 16 -1 19 -3 4 -6 -2 -5 -13z"/>
<path d="M7611 4034 c0 -11 3 -14 6 -6 3 7 2 16 -1 19 -3 4 -6 -2 -5 -13z"/>
<path d="M7622 3990 c0 -14 2 -19 5 -12 2 6 2 18 0 25 -3 6 -5 1 -5 -13z"/>
<path d="M7631 3944 c0 -11 3 -14 6 -6 3 7 2 16 -1 19 -3 4 -6 -2 -5 -13z"/>
<path d="M7540 3920 c6 -11 13 -20 16 -20 2 0 0 9 -6 20 -6 11 -13 20 -16 20
-2 0 0 -9 6 -20z"/>
<path d="M7642 3900 c0 -14 2 -19 5 -12 2 6 2 18 0 25 -3 6 -5 1 -5 -13z"/>
<path d="M7570 3870 c6 -11 13 -20 16 -20 2 0 0 9 -6 20 -6 11 -13 20 -16 20
-2 0 0 -9 6 -20z"/>
<path d="M7651 3854 c0 -11 3 -14 6 -6 3 7 2 16 -1 19 -3 4 -6 -2 -5 -13z"/>
<path d="M7612 3804 c13 -22 31 -52 41 -65 10 -13 8 -6 -5 17 -13 22 -31 52
-41 65 -10 13 -8 6 5 -17z"/>
<path d="M7661 3814 c0 -11 3 -14 6 -6 3 7 2 16 -1 19 -3 4 -6 -2 -5 -13z"/>
<path d="M7671 3764 c0 -11 3 -14 6 -6 3 7 2 16 -1 19 -3 4 -6 -2 -5 -13z"/>
<path d="M7677 3716 c-3 -8 1 -22 9 -33 14 -17 15 -17 6 2 -5 11 -7 26 -5 33
6 17 -4 15 -10 -2z"/>
<path d="M8005 2670 c-146 -37 -522 -128 -852 -206 -121 -29 -163 -43 -163
-54 1 -42 178 -983 183 -970 4 8 41 159 83 335 47 196 82 326 93 337 9 9 192
143 406 298 369 267 415 301 405 299 -3 0 -72 -18 -155 -39z"/>
<path d="M8331 2074 c0 -11 3 -14 6 -6 3 7 2 16 -1 19 -3 4 -6 -2 -5 -13z"/>
<path d="M8361 1970 c0 -8 4 -24 9 -35 5 -13 9 -14 9 -5 0 8 -4 24 -9 35 -5
13 -9 14 -9 5z"/>
<path d="M8381 1894 c0 -11 3 -14 6 -6 3 7 2 16 -1 19 -3 4 -6 -2 -5 -13z"/>
</g>
</svg>
